<?xml version="1.0" encoding="utf-8"?>
<!-- Generator: Adobe Illustrator 22.1.0, SVG Export Plug-In . SVG Version: 6.00 Build 0)  -->
<svg version="1.1" id="Capa_1" xmlns="http://www.w3.org/2000/svg" xmlns:xlink="http://www.w3.org/1999/xlink" x="0px" y="0px"
	 viewBox="0 0 512 512" style="enable-background:new 0 0 512 512;" xml:space="preserve">
<g>
	<g id="_x30_102-tombstone-rip-halloween">
		<g>
			<path d="M499.8,440.6c-12.5,2.5-22.3,10-34.3,14.2c2.8-9.7,8.3-18.4,10.1-28.4c0.9-4.5,2.6-11.3-3.3-12.1
				c-3.5-0.5-6.9,0.4-10.1,1.8c-5.3,2.3-10.2,6.2-15,9.3c-4.2,2.7-11.1,8.5-16.8,9.7c-0.9,0.2-1.7,0.3-2.6,0.2
				c-0.8-4.3,3.4-7.8,4.1-11.8c0.8-4.7,3.4-7.7,4.9-12.1c3-8.7,5.7-16.6,7.6-25.6c3.9-18.4,6.8-37.1,10.7-55.5c1.3-6,2.7-12,4.2-18
				c5.5-20.9,11.3-41.7,15.2-63c4-21.4,4-42.3,4-64c-3.6-16.7-5.9-35.9-5.9-53c0-9.1,0.9-19.5-2.2-28.3c-2.7-7.7-8.5-13.8-13.7-19.8
				c-5.2-6-9.5-12.6-14.7-18.6c-6.5-7.6-13.8-14.6-22.6-19.4c-9-5-18.6-8.9-28.7-11.2c-9.2-2.1-18.7-3.3-28.2-3.8
				c-17.1-0.9-34.3,0.1-51.4,0.9c-16.8,0.9-34,0.3-50.6,2.9c-11.3,1.7-22.3,4.3-33.6,6.1c-18.7,3-35.9,6.4-52.8,15.3
				c-27.7,14.5-42.7,44.3-52,72.7c-1.4,4.4-2.8,8.8-3.9,13.3c-1.7,6.6-3.5,13.2-5,19.8c-1.1,5.2-2.6,10.2-2.7,15.5
				c0,5.7-0.3,11.5-0.7,17.2c-1,11.8-2.7,23.4-4.7,35c-3.1,18.8-6.2,37.6-8.4,56.5c-1,9.2-1.8,18.4-2.3,27.6
				c-2.4,8.7-4.5,17.4-6.5,26.1c-4.5,19.4-8.3,39-12.2,58.6c-1.5,7.7,0,18.2-2.9,25c-1.2,2.9,1.8,10.4-1.9,12
				c-4-5.6-4.9-43.1-16.8-37.3c-11.2,5.4-4.4,23.5-12.5,31.5c-2.6-13.3-8-25.3-11.6-38.2c-1.3-4.5-3.8-8.3-8.8-8.8
				c-5.6-0.5-6.6,5.3-7.5,9.7c-2.4,11-6.3,22.6-7.3,33.7c-1.1,13-9.8,25.3-5.7,38.6c12.4,1.7,14.1-19,15.9-27
				c1.1-5,3.6-9.8,3.7-14.9c0.1-5.2,1.2-10.7,3.9-15.2c1.3,12.2,6,24.8,9.1,36.5c1.9,7.2,0.2,21.5,10,23.5
				c9.2-6.4,7.7-23.6,13.2-33.7c-0.3,0.5,1.7,5.5,1.9,6.4c0.4,1.9,0.6,3.6,1.3,5.4c1.4,3.8,2,7.6,3,11.6c0.8,3.4,1.8,7.2,3.5,10.3
				c4.4,7.9,15.5,0.3,19.1-4.5c6.9-9.3,13.6-18.8,19.3-28.9c1.3-2.4,9.5-15.5,12.6-15.8c1.5-0.1-0.6,33,0.1,36.7
				c1,5.2,4.9,10.8,10.9,10.6c4-0.1,7.2-2.3,9.9-5.1c2.6-2.8,5.7-5.4,8.1-8.4c6.3-7.8,11.3-16.6,18.4-23.8c3.9-3.9,7.1-8,9.8-12.8
				c0.8-1.4,2.5-3,2.4-4.6c-0.2-2-2.6-3.5-4.4-3.8c-2.6-0.6-5.2,0.9-7.5,2.2c-5,2.8-9.3,6.9-13,11.2c-7.7,8.7-13.4,18.9-20.5,28
				c-0.9-12.7-0.9-29.3,2.5-41.5c3-10.6-3.1-18.4-13.6-11.7c-3.9,2.5-24.8,27-25,26.8c-1-0.6,5.7-25,6.1-28
				c0.9-5.4,1.7-10.9,2.7-16.3c1.2-6.2,6.7-4.6,12.3-6.2c7.7-2.2,15.9-3,23.7-5.2c4.1-1.2,8.3-2.5,11.8-4.9c1.3-0.9,3.3-2.1,4-3.6
				c4.4-8.8-17.5-5.9-21.1-5.3c-10.2,1.6-19.9,5.2-29.8,8c0-6.2,1.1-12.3,2.6-18.3c1.8-6.9,2.6-7,9.5-8.8c5-1.3,26.7-5.9,21.5-15.4
				c-7.8-6.9-18.1,2.2-26.4,2.9c2.4-7.5,0.7-16.3,4.4-23.4c8.3-1.5,16.1-4.6,24-7.4c8.6-3.1,26.8-4.1,27.3-16
				c-2.7-7.6-14.8-4.3-20-2c-8.3,3.7-19.2,8-28.3,9.3c-0.7-5.8,0.8-11.2,1.3-17c0.5-5.6,5.3-6.3,10.3-8.3c7.5-3,20.2-5.6,20.6-15.7
				c-8.1-7.4-19.4,0.8-27.8,2.9c-0.1-16.8,3.5-33.2,5.9-49.8c0.1-0.6,14.9-3.2,16.5-3.8c3.4-1.3,11.3-6.1,9-10.6
				c-1.4-2.6-6.4-3.4-9-3.5c-4-0.1-7.9,1.4-11.6,2.6c-6,2,0.1-19,1.3-22.5c2.5-7.7,17.1-2,18.8-13.5c0.4-3.1-5.4-3.8-7.2-3.4
				c-2.4,0.5-5.7,4-8.1,3.1c-3.2-1.2-0.1-3.8,1.4-5c2.7-2.1,5.3-2.8,8.5-3.9c4.1-1.4,8.3-2.8,12-5c3.4-2.1,7.3-2.4,11.1-3.8
				c6.8-2.5,17.9-2.4,19-11.3c-7.8-14.9-34.1,7.1-44.1,6.6c-3.3-0.2,1.5-9.9,2.1-11.4c2.4-5.9,6.6-10,11.2-14.2
				c5.3-4.9,10.5-10,16.3-14.5c19.5-15.2,43.7-17.4,67.4-20.9c12.1-1.8,24.3-3.2,36.5-4.2c5.7,2.6,6.1,10.8,13,11.7
				c10.5,1.4-2.7-13.2,9.3-13.2h37.8c8.2,0.9,16.1,4.4,24.4,4.2c7-0.2,14.4-0.3,21.4,0.6c4.6,0.6,9.3,2.4,13.8,3.6
				c10.7,2.8,19.6,11.5,27.6,18.6c7.4,6.6,12.3,14.1,16,23.3c3.8,9.4,6,19.4,7.3,29.4c1.3,9.9-1.8,19.3-0.6,28.8
				c-6.6-2.6-12.5-11.4-20.5-7.3c-3.3,10,10.5,14.4,17.1,17.9c4.7,2.5-4,35-5,41.4c-5.1,30.8-9.8,61.8-18.2,92
				c-7.8,28-9.8,57.3-18.2,85.2c-1.9,6.3-3.8,12.6-5.5,19c-1.7,6.5-0.4,13.4-0.9,20.1c-0.9,12-3.9,23.8-4.4,35.9
				c-0.2,4.2-2,8,3.1,8.8c2.6,0.4,5.3,0.3,7.8-0.5c3.9-1.3,7-4,9.9-6.9c6.3-6.3,12.9-12.5,19.9-17.9c4.2-3.3,8.6-6.6,12.7-10.1
				c1.5-1.3,7.6-6.5,9.6-6.2c2.7,0.3-8.3,24.3-8.4,28.1c-0.4,13.5,15.8,5.5,22.8,2.9c2.9-1.1,5.5-2.7,8.3-3.8
				c2.2-0.9,4.3-0.7,6.6-1.3c6.1-1.6,11.6-5.4,17.6-7.1C518,448.2,510.9,438.4,499.8,440.6z M388.1,95.4c1.3-1.3,4.4-3.6,5.7-6
				c0.9-1.6,0.9-3.2-0.9-4.5c-3.3-2.3-9.4-0.5-12.8,1.2c-4.2,2.2-9.4,7.4-8.4,12.6C377.4,101.3,383.8,99.5,388.1,95.4z M343.7,87.3
				c-6.2,0.8-12.1,4.5-17.6,7.3c-3.6,1.9-20.3,9.8-8.9,13.6c6.9,2.3,15.4-4,21.7-6.3c4.3-1.6,10.3-3.5,12.6-7.8
				c1-1.8,0.9-3.1,0.3-4.2C350.6,87.7,346.5,86.9,343.7,87.3z M190.1,255.6c11.9,1.3,5.4-30.4,19.8-16.4c3.9,3.8,8.3,10.6,10.7,15.1
				c3.1,6,8.8,15.1,16.4,14.4c2.8-0.3,2.9-6.4,2.5-8.1c-0.7-3.8-2.8-7.3-4.9-10.4c-2.3-3.4-4.9-6.6-7.4-9.8c-1.1-1.4-2-2.9-3.2-4.2
				c-1-1.1-2.5-1.8-3.3-3c0.5-0.2,1-0.3,1.6-0.3c1.2-0.2,2.6-0.3,3.8-0.6c7.8-2.2,16.2-8.5,19.9-15.7c4.3-8.3,3.3-19.8-4.7-24.5
				c-12.9-7.5-28.5-7.6-42.8-6.3c-2.5,0.2-5.4,0.4-7.8,1.1c-2.6,0.7-3.5,2.2-3.9,4.6c-0.5,2.5-0.2,4.9-0.1,7.5c0,3.8,1.1,8,0.5,11.7
				c-0.8,4.7-1.1,9.5-0.7,14.2C186.9,233,178.9,252,190.1,255.6z M196.5,201.9c0.2-0.3,0.6-0.6,1.2-0.8c6.1-2.6,45.4-4,36.6,9.7
				c-0.6,0.9-1.3,1.8-2.1,2.5c-6.8,7-15.3,8.8-24.4,9.6c-3,0.3-6,0.4-8.9,0.5c0-2.6-0.2-5.2-0.5-7.8c-0.4-3.1-0.9-6.1-1.5-9.2
				C196.6,204.6,195.6,203,196.5,201.9z M289.4,239.7c-0.2,3.5-0.6,7.1-1.5,10.5c-0.7,2.7-0.4,5.9-1.4,8.6
				c-4.3-0.7-10.7-1.6-14.4,1.3c-1,17.3,37.4,16.1,33.7,3.8c-0.8-2.8-5-1.9-5.8-4.6c-1.5-4.9,1.4-13.5,2.1-18.5
				c1.7-13.4,2.6-26.2,1.3-39.6c3.9-0.4,9.6,0.4,10.7-3.9c0.1-0.3,0.1-0.6,0.2-1c0.4-4.8-4.7-5.8-8.1-7.5c-5.4-2.8-11-3.5-17.1-2.9
				c-4,0.4-8.7,2.9-5.5,6.8c1.2,1.5,2.7,3.3,4.1,4.6c0.4,0.4,5.5,2.7,5.5,2.2c0.5,7,0.1,13-1,20C291,226.2,289.8,232.9,289.4,239.7z
				 M354.3,214.2c-0.7,11.3-1.8,22.6-1.9,34c0,5.7-6,26.8,4.6,26.4c10.3-1.5,9.2-19.3,8.9-27.8c0-0.5,0-1,0-1.4
				c4-0.6,7.8,1.2,11.7,0.9c2.7-0.2,5.7-1.4,8.3-2.3c9.4-3.2,19.7-9.8,20.8-20.5c0.9-8.9-4.3-18.6-10.4-24.8
				c-8.3-8.6-20-10.9-31.5-8.2C352.8,193.5,354.9,204.3,354.3,214.2z M370.3,201.4c9.3,2.3,20.5,5.2,22,16.4
				c1.7,12.3-15.4,15.2-25,15.1c-0.5,0-1,0-1.4,0C366.1,230.4,370.9,201.5,370.3,201.4z M255.5,257c-2.1-8.6-14.6-3.9-11.5,4.5
				C246.5,268.3,256.9,263.4,255.5,257C255.5,257.1,255.5,257.1,255.5,257z M309.8,264.7c-0.1,5.9,8.1,7.2,11,2.5
				c0.9-1.6,1.1-3,0.8-4.2C320.2,258,309.9,256.6,309.8,264.7z M389.3,271.7c-0.9-6.1-12.4-5.8-11.7,1.5
				C378.5,279.2,390,279,389.3,271.7z M256.7,301.7c-2,1.8-4.7,4.2-7.5,4.4c-0.1,0-0.3,0-0.4,0c-2.7-0.3-3.9-5.6-5.2-7.8
				c-1.9-3.1-4.3-5.6-8.1-6.1c-6.1,1.5-11.8,6.1-13.5,12.3c-0.6,2.1-2.5,4.6-0.1,6.1c1.5,1,4.4,1,5.9-0.2c2.5-1.9,3.2-5.1,6.2-6.5
				c-0.9,0.4,7.8,12.6,9.1,13.6c2.6,2,5.8,3,9,2.4c3.5-0.6,5.4-2.9,7.9-5.1c5.4-4.8,11.5-6.1,16.7-0.1c6.9,8,12.5,14.8,23.5,7.9
				c5.3-3.3,9.5-4.5,15.8-4c3.4,0.3,8.5,1.7,11.4-0.8c3.1-2.8,1.4-7.7-1.2-10.1c-5.7-5.2-15.9-3.1-22.5-1.1c-2.1,0.6-4.1,1.4-6,2.3
				c-6.6,3.3-7.1,1.4-11.8-3.5c-4.5-4.6-7.7-7.4-14.2-7.4C265.3,298.1,261.6,297.5,256.7,301.7z M238.8,340.4
				c-2-0.6-3.7-0.4-5.7-0.4c-3.1,0-6.3-0.2-9.3-1.1c-3.2-0.9-6.6-0.6-9.9-1.2c-4.7-0.9-9.1-0.5-13.7-0.5c-1.4,0-3.1-0.1-4.3,0.8
				c-2.8,1.9,0.6,4.5,2.4,5.9c4.9,3.6,12.6,4.9,18.4,6.1c7.6,1.6,16.4,3.3,24.2,1.6c2-0.4,4.7-1.2,5.5-3.3c0.4-1.2,0.5-2.2,0.2-3.1
				C245.3,341.8,241.7,341.3,238.8,340.4z M409.4,345.6c0.7-1.3,0.8-2.3,0.5-3.1c-0.7-1.6-3.3-2.2-5.7-1.9
				c-4.4,0.4-8.1,3.2-12.3,4.3c-1.5,0.4-3.2-0.3-4.3,1.1c-1.1,1.4-0.3,3.4,1.2,4.4c1.8,1.2,3.9,0.7,5.9,0.6c1.9-0.2,3.5,0.3,5.4,0.2
				C403.3,351,407.8,348.4,409.4,345.6z M305.3,356.3c4.9-0.8,10.5-1.1,15.5,0.2c3.4,0.9,6.6,2.2,10.1,2.5c2.8,0.2,5.7,0.7,7.1-2.4
				c-7.4-5.9-18.1-6.8-27.2-7.7c-7.4-0.7-14.6-2.5-22-3.4c-2.1-0.3-5.4-0.9-7.4,0.4c-0.1,0.1-0.2,0.2-0.3,0.2
				c-1.6,1.4-1.4,4-0.1,5.6c1.9,2.2,5.2,3.1,7.9,3.7C294.2,356.6,300,357.1,305.3,356.3z M274.6,431.7c-2.8,0.6-9,7.2-11.7,6.6
				c-4-0.9,22.2-35.6,0.1-26.5c-12.7,5.2-27.1,17.2-34.8,28.4c-1.1-10.7,0.5-21.5,0.4-32.2c-0.1-4.8-0.4-15.3-5.4-18
				c-1.5-0.8-3.5-0.9-6,0.1c-4.7,1.9-7.8,6.6-11.1,10.2c-5.3,5.8-10.1,12.1-13.1,19.4c-5,6.2-22,29.2-13.2,36.6
				c11.4-0.6,12.4-12.3,19-19c2.8-5,9.5-21.7,16.1-22c-3.3,7.8-1.4,17.1-0.5,25.2c0.8,7.7,3.2,10.7,11.5,12.4
				c6.9,1.4,11.6-6.9,15.6-11.5c1-1.2,8.2-7.9,8.5-5.6c-4,5.7-4.2,16,1.2,20.5c5.2,4.3,10.9-5,16.4-5.8c-0.6,0.1-2,7.4-2.1,8.4
				c-0.3,2.2-0.6,4.7,0.8,6.6c2.2,2.8,6.1,2.8,8.9,1c3.6-2.3,3.1-6,4.1-9.6c1.1-3.9,2-7.8,3.2-11.7
				C284.7,437.6,284.3,429.6,274.6,431.7z M316.8,411.6c-2.7-4.1-6.2-9.2-10.6-11.7c-2.2-1.2-3.8-1.2-4.9-0.3
				c-1.4,1.1-1.9,3.6-1.4,6.3c0.8,3.9,2.5,7.6,4.3,11.1c3.6,7.1,8.4,13.6,11.5,20.9c3.1,7.3,6.4,15.9,6.5,23.9
				c0,5.4-4.1,15.2,1.1,19.4c20,0.1,9.3-31,6.9-41.1C327.9,430.1,322.6,420.2,316.8,411.6z M354.1,453.4c0.6-0.6-1.9-9.1-2.1-10.2
				c-0.7-4-1.5-8.1-2.7-12c-1.1-3.5-2.6-7.1-5.2-9.7c-1.6-1.6-4.5-2.1-6.8-1.1c-1,0.5-1.9,1.2-2.4,2.4c-1,2.3,0.6,5.6,1.3,7.8
				c1.6,4.8,2.6,9.7,3.5,14.7c1.6,8.9,1.9,17.3,2.6,26.2c0.7,8.7,7.2,13.3,14.4,6.5c4.2-4,5.5-9.9,9.1-14.2c0.4,5.9,1,13.6,8.8,13.2
				c8-1.7,2.8-32.9,0.8-38.9C368.5,417.2,357.7,449.5,354.1,453.4z"/>
		</g>
	</g>
</g>
</svg>
